# xmcd CD database file
#
# Track frame offsets:
#	150
#	16050
#	34617
#	67665
#
# Disc length: 4440 seconds
#
# Revision: 2
# Processed by: cddbd v1.5.1PL0 Copyright (c) Steve Scherf et al.
# Submitted via: CDex 1.51
#
DISCID=1f115604
DTITLE=椎名林檎 - りんごのうた
DYEAR=2003
DGENRE=Rock
TTITLE0=りんごのうた
TTITLE1=la salle de bain
TTITLE2=リンゴカタログ 〜黒子時代再編纂〜
TTITLE3=でーた
EXTD=YEAR: 2003
EXTT0=
EXTT1=
EXTT2=
EXTT3=
PLAYORDER=
